<svg width="35" height="38" viewBox="0 0 35 38" fill="none" xmlns="http://www.w3.org/2000/svg">
<g filter="url(#filter0_d_1_109)">
<path fill-rule="evenodd" clip-rule="evenodd" d="M12.9121 13.9655C13.6575 13.9655 14.2583 14.5516 14.2583 15.2726C14.2583 15.9936 13.6575 16.5798 12.9121 16.5798C12.1731 16.5798 11.5724 15.9936 11.5724 15.2726C11.5724 14.5516 12.1731 13.9655 12.9121 13.9655ZM20.9437 28.6278C22.3842 28.556 23.6812 27.9497 24.6386 27.0144C25.2457 26.422 25.7147 25.7009 25.9989 24.8942C26.0364 24.8577 26.0803 24.8148 26.1165 24.7795C26.5247 24.3812 26.8697 23.9362 27.1565 23.4661C27.0686 25.0795 26.3607 26.5354 25.2535 27.6142C24.1399 28.7008 22.6284 29.3991 20.9581 29.471C20.8198 29.6714 20.5937 29.7999 20.3367 29.7999H19.2231C18.8045 29.7999 18.4634 29.4646 18.4634 29.0588C18.4634 28.6604 18.8071 28.3239 19.2231 28.3239H20.3367C20.586 28.3214 20.8055 28.4438 20.9437 28.6278ZM21.8881 13.9655C22.6271 13.9655 23.2278 14.5516 23.2278 15.2726C23.2278 15.9936 22.6271 16.5798 21.8881 16.5798C21.1491 16.5798 20.5484 15.9936 20.5484 15.2726C20.5484 14.5516 21.1491 13.9655 21.8881 13.9655ZM15.1665 23.4319C14.9236 23.4319 14.7273 23.2378 14.7273 23.0033C14.7273 22.7764 14.9262 22.5823 15.1665 22.5823H19.6441C19.8767 22.5823 20.0756 22.7764 20.0756 23.0033C20.0756 23.2403 19.8767 23.4319 19.6441 23.4319H15.1665ZM22.3779 19.3679H12.4225C10.2792 19.3679 8.52092 17.6562 8.52092 15.555C8.52092 13.4638 10.2753 11.7483 12.4225 11.7483H22.3815C24.5248 11.7483 26.2831 13.46 26.2831 15.555C26.2792 17.6563 24.5239 19.3679 22.3779 19.3679ZM12.4225 18.5184H22.3815C24.0481 18.5184 25.4188 17.1847 25.4188 15.5549C25.4188 13.9288 24.052 12.5914 22.3815 12.5914H12.4225C10.7559 12.5914 9.38524 13.9251 9.38524 15.5549C9.38524 17.186 10.7521 18.5184 12.4225 18.5184ZM28.0336 19.8696H28.1654C29.2854 19.8696 30.2001 18.9772 30.2001 17.8843V16.5343C30.2001 15.4352 29.2854 14.5427 28.1654 14.5427H28.0336V19.8696ZM6.63481 19.8696H6.77304V14.5452H6.63481C5.51475 14.5452 4.6001 15.4377 4.6001 16.5368V17.8868C4.6001 18.9772 5.51475 19.8696 6.63481 19.8696ZM10.8191 8.24891L8.97689 2.98003C8.90972 2.8086 8.97689 2.62455 9.11513 2.51616C9.48977 2.18086 9.64223 1.66659 9.51044 1.18884C9.32182 0.47415 8.56606 0.0531365 7.84389 0.247234C7.46925 0.369505 7.21605 0.527068 7.01063 0.869929C6.6967 1.40692 6.79747 2.08505 7.25997 2.50355C7.44212 2.67497 7.67853 2.78968 7.92528 2.83885C8.10098 2.87541 8.23275 3.01028 8.26246 3.17416L9.44066 9.00516C9.86051 8.69634 10.3205 8.43926 10.8191 8.24891ZM25.3643 9.00268L26.5425 3.17168C26.5736 3.00655 26.704 2.87167 26.8797 2.83637C27.1291 2.78721 27.3629 2.67124 27.545 2.50106C28.0347 2.04981 28.1148 1.31618 27.7336 0.772896C27.5205 0.472894 27.1936 0.272469 26.8255 0.216998C26.4508 0.161534 26.0723 0.253553 25.7726 0.474143C25.4793 0.694731 25.2971 1.01742 25.2532 1.37919C25.2028 1.8002 25.3643 2.22248 25.6847 2.5149C25.823 2.6233 25.8901 2.80734 25.8294 2.97876L23.9872 8.24764C24.4794 8.43924 24.9393 8.69638 25.3643 9.00268ZM27.1627 20.2904V14.1228C27.1627 12.6077 26.5245 11.2312 25.509 10.2305C24.4833 9.23976 23.0725 8.61707 21.5198 8.61707H13.2762C11.7234 8.61707 10.3127 9.23976 9.2973 10.2305C8.27153 11.2314 7.63723 12.6078 7.63723 14.1228V20.2904C7.63723 21.8055 8.27543 23.182 9.2973 24.1827C10.3127 25.1835 11.7274 25.7961 13.2762 25.7961C13.5191 25.7961 13.7077 25.9902 13.7077 26.2247V29.7743L17.6595 25.9246C17.7409 25.8389 17.8585 25.796 17.967 25.796H21.5236C23.0765 25.796 24.4872 25.1834 25.5128 24.1825C26.5282 23.1804 27.1627 21.8053 27.1627 20.2904Z" fill="#6D8994"/>
</g>
<defs>
<filter id="filter0_d_1_109" x="0.600098" y="0.199951" width="33.6" height="37.6" filterUnits="userSpaceOnUse" color-interpolation-filters="sRGB">
<feFlood flood-opacity="0" result="BackgroundImageFix"/>
<feColorMatrix in="SourceAlpha" type="matrix" values="0 0 0 0 0 0 0 0 0 0 0 0 0 0 0 0 0 0 127 0" result="hardAlpha"/>
<feOffset dy="4"/>
<feGaussianBlur stdDeviation="2"/>
<feComposite in2="hardAlpha" operator="out"/>
<feColorMatrix type="matrix" values="0 0 0 0 0 0 0 0 0 0 0 0 0 0 0 0 0 0 0.25 0"/>
<feBlend mode="normal" in2="BackgroundImageFix" result="effect1_dropShadow_1_109"/>
<feBlend mode="normal" in="SourceGraphic" in2="effect1_dropShadow_1_109" result="shape"/>
</filter>
</defs>
</svg>
