<svg width="40" height="12" viewBox="0 0 40 12" fill="none" xmlns="http://www.w3.org/2000/svg">
<path d="M6.02344 5.67188V0.363281H7.85742V5.67188C7.85742 6.58984 7.71484 7.30469 7.42969 7.81641C6.89844 8.75391 5.88477 9.22266 4.38867 9.22266C2.89258 9.22266 1.87695 8.75391 1.3418 7.81641C1.05664 7.30469 0.914062 6.58984 0.914062 5.67188V0.363281H2.74805V5.67188C2.74805 6.26562 2.81836 6.69922 2.95898 6.97266C3.17773 7.45703 3.6543 7.69922 4.38867 7.69922C5.11914 7.69922 5.59375 7.45703 5.8125 6.97266C5.95312 6.69922 6.02344 6.26562 6.02344 5.67188ZM14.8008 3.29883C15.3164 3.84961 15.5742 4.6582 15.5742 5.72461C15.5742 6.84961 15.3203 7.70703 14.8125 8.29688C14.3086 8.88672 13.6582 9.18164 12.8613 9.18164C12.3535 9.18164 11.9316 9.05469 11.5957 8.80078C11.4121 8.66016 11.2324 8.45508 11.0566 8.18555V11.5137H9.4043V2.61328H11.0039V3.55664C11.1836 3.2793 11.375 3.06055 11.5781 2.90039C11.9492 2.61523 12.3906 2.47266 12.9023 2.47266C13.6484 2.47266 14.2812 2.74805 14.8008 3.29883ZM13.8516 5.80664C13.8516 5.31445 13.7383 4.87891 13.5117 4.5C13.2891 4.12109 12.9258 3.93164 12.4219 3.93164C11.8164 3.93164 11.4004 4.21875 11.1738 4.79297C11.0566 5.09766 10.998 5.48438 10.998 5.95312C10.998 6.69531 11.1953 7.2168 11.5898 7.51758C11.8242 7.69336 12.1016 7.78125 12.4219 7.78125C12.8867 7.78125 13.2402 7.60156 13.4824 7.24219C13.7285 6.88281 13.8516 6.4043 13.8516 5.80664ZM16.8223 0.363281H18.4922V9H16.8223V0.363281ZM25.4531 3.42188C25.9922 4.09766 26.2617 4.89648 26.2617 5.81836C26.2617 6.75586 25.9922 7.55859 25.4531 8.22656C24.9141 8.89062 24.0957 9.22266 22.998 9.22266C21.9004 9.22266 21.082 8.89062 20.543 8.22656C20.0039 7.55859 19.7344 6.75586 19.7344 5.81836C19.7344 4.89648 20.0039 4.09766 20.543 3.42188C21.082 2.74609 21.9004 2.4082 22.998 2.4082C24.0957 2.4082 24.9141 2.74609 25.4531 3.42188ZM22.9922 3.82031C22.5039 3.82031 22.127 3.99414 21.8613 4.3418C21.5996 4.68555 21.4688 5.17773 21.4688 5.81836C21.4688 6.45898 21.5996 6.95312 21.8613 7.30078C22.127 7.64844 22.5039 7.82227 22.9922 7.82227C23.4805 7.82227 23.8555 7.64844 24.1172 7.30078C24.3789 6.95312 24.5098 6.45898 24.5098 5.81836C24.5098 5.17773 24.3789 4.68555 24.1172 4.3418C23.8555 3.99414 23.4805 3.82031 22.9922 3.82031ZM27.7031 3.30469C28.1445 2.74219 28.9023 2.46094 29.9766 2.46094C30.6758 2.46094 31.2969 2.59961 31.8398 2.87695C32.3828 3.1543 32.6543 3.67773 32.6543 4.44727V7.37695C32.6543 7.58008 32.6582 7.82617 32.666 8.11523C32.6777 8.33398 32.7109 8.48242 32.7656 8.56055C32.8203 8.63867 32.9023 8.70312 33.0117 8.75391V9H31.1953C31.1445 8.87109 31.1094 8.75 31.0898 8.63672C31.0703 8.52344 31.0547 8.39453 31.043 8.25C30.8125 8.5 30.5469 8.71289 30.2461 8.88867C29.8867 9.0957 29.4805 9.19922 29.0273 9.19922C28.4492 9.19922 27.9707 9.03516 27.5918 8.70703C27.2168 8.375 27.0293 7.90625 27.0293 7.30078C27.0293 6.51562 27.332 5.94727 27.9375 5.5957C28.2695 5.4043 28.7578 5.26758 29.4023 5.18555L29.9707 5.11523C30.2793 5.07617 30.5 5.02734 30.6328 4.96875C30.8711 4.86719 30.9902 4.70898 30.9902 4.49414C30.9902 4.23242 30.8984 4.05273 30.7148 3.95508C30.5352 3.85352 30.2695 3.80273 29.918 3.80273C29.5234 3.80273 29.2441 3.90039 29.0801 4.0957C28.9629 4.24023 28.8848 4.43555 28.8457 4.68164H27.2344C27.2695 4.12305 27.4258 3.66406 27.7031 3.30469ZM28.9453 7.79297C29.1016 7.92188 29.293 7.98633 29.5195 7.98633C29.8789 7.98633 30.209 7.88086 30.5098 7.66992C30.8145 7.45898 30.9727 7.07422 30.9844 6.51562V5.89453C30.8789 5.96094 30.7715 6.01562 30.6621 6.05859C30.5566 6.09766 30.4102 6.13477 30.2227 6.16992L29.8477 6.24023C29.4961 6.30273 29.2441 6.37891 29.0918 6.46875C28.834 6.62109 28.7051 6.85742 28.7051 7.17773C28.7051 7.46289 28.7852 7.66797 28.9453 7.79297ZM39.9551 0.375V9H38.332V8.11523C38.0938 8.49414 37.8223 8.76953 37.5176 8.94141C37.2129 9.11328 36.834 9.19922 36.3809 9.19922C35.6348 9.19922 35.0059 8.89844 34.4941 8.29688C33.9863 7.69141 33.7324 6.91602 33.7324 5.9707C33.7324 4.88086 33.9824 4.02344 34.4824 3.39844C34.9863 2.77344 35.6582 2.46094 36.498 2.46094C36.8848 2.46094 37.2285 2.54688 37.5293 2.71875C37.8301 2.88672 38.0742 3.12109 38.2617 3.42188V0.375H39.9551ZM35.4551 5.84766C35.4551 6.4375 35.5723 6.9082 35.8066 7.25977C36.0371 7.61523 36.3887 7.79297 36.8613 7.79297C37.334 7.79297 37.6934 7.61719 37.9395 7.26562C38.1855 6.91406 38.3086 6.45898 38.3086 5.90039C38.3086 5.11914 38.1113 4.56055 37.7168 4.22461C37.4746 4.02148 37.1934 3.91992 36.873 3.91992C36.3848 3.91992 36.0254 4.10547 35.7949 4.47656C35.5684 4.84375 35.4551 5.30078 35.4551 5.84766Z" fill="#0074A0"/>
</svg>
